<?xml version="1.0" encoding="UTF-8"?>
<svg version="1.1" xmlns="http://www.w3.org/2000/svg" width="512" height="512">
<path d="M0 0 C1.50371239 -0.00551503 1.50371239 -0.00551503 3.03780282 -0.01114148 C6.39525308 -0.02214984 9.75267236 -0.02601737 13.11013794 -0.02983093 C15.51853025 -0.03609786 17.9269216 -0.04274486 20.33531189 -0.04974365 C27.56172205 -0.06894841 34.78812962 -0.07956962 42.01455754 -0.08847144 C45.42446144 -0.09286244 48.83436381 -0.09822722 52.24426651 -0.10346031 C63.59192774 -0.12046978 74.93958804 -0.13496082 86.28726006 -0.14220905 C89.22903317 -0.1441187 92.17080627 -0.14603907 95.11257935 -0.147995 C95.84367122 -0.14847874 96.57476309 -0.14896248 97.32800926 -0.14946087 C109.15384404 -0.15774955 120.9795773 -0.183068 132.80536781 -0.21557567 C144.96909051 -0.24873735 157.13276178 -0.26666609 169.29652989 -0.26985329 C176.11687783 -0.27201022 182.9370778 -0.28063786 189.75738144 -0.30631447 C196.18098031 -0.32968973 202.60431409 -0.33379034 209.02794456 -0.32355309 C211.37557167 -0.32305987 213.72321224 -0.32931637 216.07079887 -0.34310913 C236.62867264 -0.45705801 255.22065188 1.15655845 270.94656372 15.95576477 C281.7357801 27.41930717 287.34677954 41.32855137 287.26976013 56.97599792 C287.27358568 57.81713831 287.27741123 58.6582787 287.2813527 59.52490819 C287.29159741 62.31816911 287.2877069 65.11122118 287.28372192 67.90449524 C287.28807312 69.91750782 287.29325763 71.93051874 287.29920959 73.94352722 C287.3125669 79.39399101 287.3131819 84.84438531 287.3106463 90.29486227 C287.30957437 94.85237467 287.31446562 99.40987314 287.31925172 103.96738255 C287.33033559 114.72312348 287.3307906 125.47882949 287.32473755 136.23457336 C287.31869794 147.31415804 287.33101108 158.39361573 287.35230762 169.47317874 C287.36994561 179.00127465 287.37592151 188.52933021 287.37266988 198.05744183 C287.37086039 203.74128559 287.37345979 209.42503874 287.38738441 215.10886765 C287.39999388 220.45562174 287.39798912 225.8021784 287.38497353 231.1489296 C287.382615 233.10518715 287.38531634 235.06145874 287.39359665 237.0177002 C287.46605738 255.47520991 284.45657268 272.29899141 271.00906372 286.14717102 C257.89800881 297.73589735 243.78706718 302.478552 226.51019287 302.40786743 C224.99712053 302.41360575 224.99712053 302.41360575 223.45348108 302.41946 C220.09907033 302.42971614 216.74483312 302.42581194 213.39041138 302.42182922 C210.97493838 302.42617977 208.55946677 302.43136407 206.14399719 302.43731689 C200.27920124 302.44929496 194.41444778 302.4518628 188.54964425 302.44951663 C183.77929029 302.44772868 179.00895018 302.4494933 174.23859787 302.45374107 C173.21755589 302.45463386 173.21755589 302.45463386 172.1758868 302.45554468 C170.79275192 302.45675651 169.40961703 302.45797065 168.02648215 302.45918705 C155.07508284 302.47004656 142.12370961 302.46790762 129.17230885 302.46180221 C117.34404181 302.45663423 105.51585716 302.46788816 93.68760641 302.48690043 C81.51925057 302.50630824 69.35093364 302.51452969 57.18256223 302.51077718 C50.36020213 302.50886962 43.53791214 302.51130907 36.71556473 302.52549171 C30.29852866 302.53869768 23.88161597 302.53610563 17.46457863 302.52308083 C15.1152764 302.52072018 12.76596251 302.52343129 10.41667366 302.53170395 C-12.49034959 302.60652477 -12.49034959 302.60652477 -21.99093628 299.14717102 C-22.65742376 298.90461736 -23.32391125 298.66206369 -24.01059532 298.41215992 C-37.75261349 292.86689267 -48.99185496 282.83139583 -54.99093628 269.14717102 C-59.59599493 257.99938387 -59.56162318 247.4728034 -59.5085144 235.60029602 C-59.51394398 233.55052699 -59.52107131 231.50076186 -59.52975464 229.45100403 C-59.54789143 223.91792107 -59.54096042 218.38513857 -59.5282383 212.85205078 C-59.51806046 207.04188775 -59.5275172 201.23174921 -59.53378296 195.42158508 C-59.54104547 185.66730668 -59.53150833 175.91314971 -59.51242065 166.15888977 C-59.4906547 154.90652865 -59.49770705 143.65445752 -59.51972628 132.40210342 C-59.53792008 122.71421972 -59.54041915 113.02642296 -59.5299716 103.33852768 C-59.52375854 97.56412254 -59.52284059 91.78985338 -59.53611755 86.01545715 C-59.54773346 80.58485443 -59.53954587 75.15462298 -59.51654053 69.72406006 C-59.511284 67.7396201 -59.51271433 65.7551485 -59.52159119 63.77072144 C-59.5996601 44.53427026 -56.03517332 29.92268977 -42.46359253 15.46748352 C-30.61248597 4.34653993 -15.8834142 -0.00313969 0 0 Z " fill="#000000" transform="translate(58.990936279296875,104.85282897949219)"/>
<path d="M0 0 C9.41758336 -0.44845635 17.65857753 2.14223658 24.8359375 8.25390625 C31.16833069 14.42582943 35.35038269 21.17733228 36.22016048 30.1151638 C36.23768343 31.50231637 36.23934519 32.88973415 36.2275238 34.27694702 C36.23560211 35.43430373 36.23560211 35.43430373 36.24384362 36.61504138 C36.25805567 39.17891126 36.25103638 41.74225989 36.24389648 44.30615234 C36.24960363 46.15315666 36.25656922 48.00015745 36.26469421 49.84715271 C36.28260358 54.84930807 36.28146129 59.85128779 36.27575183 64.85346556 C36.27265648 69.03574462 36.27875636 73.21799011 36.28479058 77.40026438 C36.29882718 87.27045218 36.29728196 97.1405534 36.28588867 107.01074219 C36.27441073 117.17867613 36.28847971 127.34634621 36.31528515 137.51424539 C36.33746844 146.25760926 36.34407352 155.00089046 36.33820873 163.74428046 C36.33484397 168.96032571 36.33722225 174.17620188 36.35445976 179.39222336 C36.3699685 184.29909341 36.36592978 189.20557379 36.34715462 194.11242867 C36.34347948 195.90784826 36.3465457 197.70329697 36.35704041 199.49868965 C36.4304622 213.10361606 35.04603935 222.81268761 25.3515625 233.00390625 C18.75392654 238.79094619 11.43590308 241.31963741 2.77734375 241.51953125 C1.73449219 241.55691406 0.69164062 241.59429687 -0.3828125 241.6328125 C-10.65350894 240.47510215 -19.34116566 235.10860285 -28.09765625 229.95703125 C-29.32156224 229.24589491 -30.54602162 228.53571024 -31.77099609 227.82641602 C-34.30859599 226.35614579 -36.84380032 224.88186595 -39.37744141 223.40478516 C-44.74712665 220.2790499 -50.14821066 217.20858423 -55.5475769 214.13452148 C-60.75638964 211.16678723 -65.95795126 208.18632865 -71.16015625 205.20703125 C-72.06036499 204.69151703 -72.06036499 204.69151703 -72.97875977 204.16558838 C-77.16652529 201.76672402 -81.3514007 199.3628825 -85.53515625 196.95703125 C-87.15768311 196.02685181 -87.15768311 196.02685181 -88.81298828 195.07788086 C-89.82216309 194.49659424 -90.83133789 193.91530762 -91.87109375 193.31640625 C-92.75071777 192.81077148 -93.6303418 192.30513672 -94.53662109 191.78417969 C-95.4023877 191.2637207 -96.2681543 190.74326172 -97.16015625 190.20703125 C-98.1902179 189.77189209 -99.22027954 189.33675293 -100.28155518 188.88842773 C-103.61957915 185.77908208 -103.62187547 185.12149276 -103.88168335 180.75274658 C-103.899119 178.41103698 -103.88303118 176.06894187 -103.84130859 173.72753906 C-103.84218475 172.44923721 -103.84306091 171.17093536 -103.84396362 169.85389709 C-103.84568502 166.3516729 -103.81041479 162.85068196 -103.76851988 159.34874439 C-103.73100821 155.6879432 -103.72748724 152.02711363 -103.72036743 148.3661499 C-103.70171963 141.43510565 -103.6524843 134.50462931 -103.59227049 127.57383513 C-103.52520266 119.68279995 -103.4922158 111.79173763 -103.46209788 103.90048838 C-103.39938452 87.66900355 -103.29385172 71.43808988 -103.16015625 55.20703125 C-84.1171875 44.22070313 -84.1171875 44.22070313 -82.38477707 43.22123623 C-79.46413731 41.53625261 -76.54349906 39.85126639 -73.62286377 38.16627502 C-72.49338318 37.5146489 -71.36390259 36.86302277 -70.20019531 36.19165039 C-69.19313538 35.61065079 -68.18607544 35.02965118 -67.14849854 34.43104553 C-64.00137698 32.61542939 -60.85420701 30.79989718 -57.70703125 28.984375 C-52.06948278 25.73200846 -46.43274605 22.4782382 -40.79663086 19.22338867 C-38.56661581 17.93676114 -36.33568117 16.65172593 -34.10375977 15.3684082 C-29.62883142 12.79483392 -25.15798665 10.21961583 -20.734375 7.55859375 C-13.81009808 3.41507935 -8.03572079 0.77015046 0 0 Z " fill="#000000" transform="translate(476.16015625,134.79296875)"/>
</svg>
